<svg width="50" height="51" viewBox="0 0 50 51" fill="none" xmlns="http://www.w3.org/2000/svg">
<path d="M34.8315 41.9087L33.4982 31.2337C33.3092 29.7216 32.5744 28.3307 31.4319 27.3225C30.2893 26.3142 28.8178 25.7581 27.294 25.7587H22.7023C21.1793 25.7591 19.7088 26.3157 18.5671 27.3238C17.4254 28.332 16.6912 29.7223 16.5023 31.2337L15.1669 41.9087C15.0936 42.4952 15.146 43.0905 15.3204 43.6552C15.4949 44.2199 15.7875 44.7411 16.1788 45.184C16.5701 45.627 17.0512 45.9816 17.5901 46.2243C18.129 46.4671 18.7134 46.5924 19.3044 46.592H30.6961C31.287 46.5921 31.8711 46.4666 32.4097 46.2237C32.9484 45.9808 33.4292 45.6262 33.8203 45.1832C34.2114 44.7403 34.5038 44.2193 34.6782 43.6547C34.8525 43.0902 34.9048 42.495 34.8315 41.9087V41.9087Z" stroke="#049244" stroke-width="2" stroke-linecap="round" stroke-linejoin="round"/>
<path d="M25 17.4253C28.4518 17.4253 31.25 14.6271 31.25 11.1753C31.25 7.72351 28.4518 4.92529 25 4.92529C21.5482 4.92529 18.75 7.72351 18.75 11.1753C18.75 14.6271 21.5482 17.4253 25 17.4253Z" stroke="#049244" stroke-width="2"/>
<path d="M8.33317 23.6753C10.6344 23.6753 12.4998 21.8098 12.4998 19.5086C12.4998 17.2074 10.6344 15.3419 8.33317 15.3419C6.03198 15.3419 4.1665 17.2074 4.1665 19.5086C4.1665 21.8098 6.03198 23.6753 8.33317 23.6753Z" stroke="#111111" stroke-width="2"/>
<path d="M41.6667 23.6753C43.9679 23.6753 45.8333 21.8098 45.8333 19.5086C45.8333 17.2074 43.9679 15.3419 41.6667 15.3419C39.3655 15.3419 37.5 17.2074 37.5 19.5086C37.5 21.8098 39.3655 23.6753 41.6667 23.6753Z" stroke="#111111" stroke-width="2"/>
<path d="M8.33339 29.9253H7.69589C6.70956 29.9252 5.75517 30.275 5.00251 30.9124C4.24985 31.5499 3.74772 32.4336 3.58547 33.4065L2.89172 37.5732C2.79217 38.1702 2.82385 38.7817 2.98458 39.3652C3.1453 39.9486 3.43121 40.4901 3.82241 40.9519C4.21361 41.4137 4.70071 41.7847 5.24983 42.0391C5.79896 42.2936 6.39693 42.4254 7.00214 42.4253H14.5834M41.6667 29.9253H42.3042C43.2906 29.9252 44.2449 30.275 44.9976 30.9124C45.7503 31.5499 46.2524 32.4336 46.4146 33.4065L47.1084 37.5732C47.208 38.1702 47.1763 38.7817 47.0155 39.3652C46.8548 39.9486 46.5689 40.4901 46.1777 40.9519C45.7865 41.4137 45.2994 41.7847 44.7503 42.0391C44.2012 42.2936 43.6032 42.4254 42.998 42.4253H35.4167" stroke="#111111" stroke-width="2" stroke-linecap="round" stroke-linejoin="round"/>
</svg>
