<svg width="55" height="56" viewBox="0 0 55 56" fill="none" xmlns="http://www.w3.org/2000/svg">
<path d="M27.5 3.69617L6.875 10.5712V31.1962C6.875 42.5883 16.1079 51.8212 27.5 51.8212C38.8921 51.8212 48.125 42.5883 48.125 31.1962V10.5712L27.5 3.69617ZM44.2578 31.1962C44.2578 40.4506 36.7544 47.954 27.5 47.954C18.2456 47.954 10.7422 40.4506 10.7422 31.1962V13.4716L27.5 7.56335L44.2578 13.4716V31.1962Z" fill="#111111"/>
<path d="M20.3244 25.7767C20.1452 25.5967 19.9322 25.4538 19.6976 25.3564C19.463 25.2589 19.2115 25.2087 18.9574 25.2087C18.7034 25.2087 18.4519 25.2589 18.2173 25.3564C17.9827 25.4538 17.7697 25.5967 17.5905 25.7767C17.4105 25.956 17.2676 26.169 17.1701 26.4035C17.0726 26.6381 17.0225 26.8896 17.0225 27.1437C17.0225 27.3977 17.0726 27.6492 17.1701 27.8838C17.2676 28.1184 17.4105 28.3314 17.5905 28.5106L24.5407 35.4608L24.6535 35.5736C24.823 35.7434 25.0244 35.8782 25.246 35.9701C25.4677 36.0621 25.7053 36.1094 25.9452 36.1094C26.1852 36.1094 26.4228 36.0621 26.6445 35.9701C26.8661 35.8782 27.0675 35.7434 27.237 35.5736L39.2414 23.5692C39.4112 23.3997 39.546 23.1983 39.6379 22.9767C39.7298 22.755 39.7771 22.5174 39.7771 22.2775C39.7771 22.0375 39.7298 21.7999 39.6379 21.5782C39.546 21.3566 39.4112 21.1552 39.2414 20.9857L39.091 20.8353C38.9215 20.6655 38.7201 20.5307 38.4985 20.4388C38.2768 20.3469 38.0392 20.2996 37.7992 20.2996C37.5593 20.2996 37.3217 20.3469 37.1 20.4388C36.8784 20.5307 36.677 20.6655 36.5075 20.8353L25.9425 31.3949L20.3244 25.7767Z" fill="#049244"/>
</svg>
