<svg width="52" height="43" viewBox="0 0 52 43" fill="none" xmlns="http://www.w3.org/2000/svg">
<path fill-rule="evenodd" clip-rule="evenodd" d="M36.06 0.135289C35.021 1.17225 33.521 1.93363 31.5595 2.41955C30.4037 2.70582 29.3641 2.8747 26.7055 3.20776C25.6087 3.34511 24.5714 3.50064 23.8839 3.63087L23.7974 3.64727L23.8963 3.66329C23.9508 3.6722 24.2014 3.69598 24.4532 3.71633C29.6943 4.13866 33.6602 3.81705 35.3346 2.83388L35.4621 2.75897L35.4779 2.87457C35.5217 3.19721 35.5674 3.93074 35.5943 4.74197C35.687 7.54293 35.3193 10.1903 34.5437 12.3045L34.4576 12.5393L34.5844 12.6359C34.6541 12.6891 34.7129 12.7304 34.7153 12.7279C34.8193 12.6158 35.5856 11.1886 35.7765 10.7516C37.2942 7.27676 37.4913 3.54592 36.3278 0.314856C36.2017 -0.0353758 36.2193 -0.023676 36.06 0.135289Z" fill="#B5E14C"/>
<path fill-rule="evenodd" clip-rule="evenodd" d="M13.3774 6.2724C11.5359 6.41292 10.0337 7.83127 9.82689 9.62491C9.80648 9.80117 9.80115 12.7558 9.807 20.58L9.81506 31.2936L9.86771 31.5237C10.2334 33.1213 11.4372 34.2638 13.0479 34.5424C13.3845 34.6005 29.7616 34.612 30.3189 34.5546C32.0478 34.376 33.6545 33.7714 35.0091 32.7898C40.0528 29.1348 40.006 21.8501 34.9155 18.2225L34.6486 18.0324L34.7033 17.9442C35.8814 16.0461 36.1904 13.717 35.5327 11.6903L35.4516 11.44L35.2626 11.8032C33.5293 15.1331 30.5748 17.7239 27.3242 18.7644C22.9804 20.1547 17.1383 19.0678 13.1007 16.1178C12.5296 15.7006 11.4841 14.7984 11.4841 14.7229C11.4841 14.7137 11.6539 14.7251 11.8615 14.7484C12.6645 14.8383 13.5459 14.9023 14.6583 14.9516L14.9987 14.9668V13.2817C14.9987 12.102 14.9905 11.584 14.9715 11.5542C14.9191 11.4722 15.2233 10.3245 15.4795 9.63737C15.9485 8.38002 16.5281 7.44391 17.4028 6.53107L17.6754 6.24658L15.6501 6.25014C14.5363 6.25192 13.5136 6.26197 13.3774 6.2724ZM29.973 21.6076C32.5366 21.9414 34.1642 24.4159 33.3625 26.7604C32.844 28.2765 31.39 29.3757 29.7931 29.459C29.6467 29.4667 29.527 29.4822 29.527 29.4935C29.527 29.5048 26.2581 29.5141 22.2628 29.5141H14.9987V25.5434V21.5727L22.3556 21.5731C28.5215 21.5735 29.7547 21.5791 29.973 21.6076ZM6.39229 37.0936C6.14854 37.2142 6.19521 37.1184 5.31186 39.3126C4.62117 41.028 4.57879 41.1422 4.57879 41.2882C4.57879 41.5591 4.74896 41.7169 5.04042 41.7168C5.31381 41.7165 5.37517 41.6368 5.63972 40.9384L5.78051 40.5668L6.70793 40.5606L7.63548 40.5545L7.76704 40.9029C8.0403 41.6258 8.1235 41.7272 8.43186 41.7124C8.75101 41.6972 8.9269 41.4792 8.8632 41.1776C8.82238 40.9839 7.36287 37.4543 7.26433 37.311C7.09078 37.0585 6.67335 36.9543 6.39229 37.0936ZM9.12047 37.089C8.78975 37.2889 8.79846 37.3534 9.35967 38.846C9.6055 39.4994 9.90554 40.2996 10.0267 40.624C10.3967 41.6152 10.4788 41.7151 10.9256 41.7163C11.2224 41.717 11.3986 41.6125 11.5321 41.3564C11.5881 41.249 12.8701 37.8717 12.9293 37.6751C13.0454 37.2908 12.8541 37.027 12.4742 37.048C12.1539 37.0657 12.2263 36.9193 11.5092 39.0013L10.9477 40.6317L10.4084 39.0618C9.82806 37.3726 9.74538 37.1659 9.62006 37.0911C9.51164 37.0265 9.22603 37.0253 9.12047 37.089ZM14.8321 37.0936C14.5884 37.2142 14.6351 37.1184 13.7516 39.3126C13.061 41.028 13.0186 41.1422 13.0186 41.2882C13.0186 41.5591 13.1887 41.7169 13.4803 41.7168C13.7537 41.7165 13.815 41.6368 14.0796 40.9384L14.2202 40.5668L15.1478 40.5606L16.0752 40.5545L16.2069 40.9029C16.48 41.6258 16.5634 41.7272 16.8716 41.7124C17.1909 41.6972 17.3666 41.4792 17.3031 41.1776C17.2621 40.9839 15.8026 37.4543 15.7041 37.311C15.5305 37.0585 15.1131 36.9543 14.8321 37.0936ZM22.8976 37.085C22.6514 37.2037 22.6467 37.2464 22.6467 39.3804C22.6467 41.2415 22.6544 41.4002 22.7504 41.5375C22.9622 41.8397 23.4862 41.7581 23.5858 41.4074C23.6209 41.2836 23.6209 37.4771 23.5858 37.3534C23.5111 37.0901 23.1662 36.9556 22.8976 37.085ZM26.1181 37.0936C25.8743 37.2142 25.921 37.1184 25.0377 39.3126C24.347 41.028 24.3047 41.1422 24.3047 41.2882C24.3047 41.5591 24.4748 41.7169 24.7662 41.7168C25.0396 41.7165 25.1011 41.6368 25.3657 40.9384L25.5063 40.5668L26.4339 40.5606L27.3613 40.5545L27.4928 40.9029C27.7661 41.6258 27.8493 41.7272 28.1577 41.7124C28.4769 41.6972 28.6527 41.4792 28.589 41.1776C28.5482 40.9839 27.0887 37.4543 26.9901 37.311C26.8166 37.0585 26.3992 36.9543 26.1181 37.0936ZM49.3023 37.0791C48.4204 37.2603 47.9545 37.8863 48.1513 38.6255C48.2927 39.1564 48.658 39.3952 49.7531 39.6729C50.6059 39.8889 50.7925 40.0324 50.7574 40.4456C50.7284 40.7875 50.3654 41.0147 49.8479 41.0147C49.3634 41.0147 49.1039 40.8376 48.914 40.3775C48.6422 39.7189 47.9039 39.8897 48.0504 40.5773C48.2057 41.3061 48.8491 41.7044 49.8716 41.7046C51.044 41.7048 51.7269 41.1791 51.7269 40.2762C51.7269 39.5064 51.3455 39.1871 50.02 38.8475C49.741 38.776 49.4683 38.6994 49.4142 38.6771C48.7025 38.3846 48.9769 37.7219 49.8097 37.7219C50.2378 37.7219 50.4394 37.8434 50.6512 38.2289C50.8353 38.5642 51.004 38.6551 51.2537 38.5539C51.7254 38.3626 51.5415 37.6329 50.9324 37.2794C50.5686 37.0682 49.8089 36.9749 49.3023 37.0791ZM0.717399 37.172C0.494969 37.2871 0.508489 37.1532 0.500299 39.3319C0.491979 41.5728 0.487039 41.534 0.788639 41.6215C0.975839 41.6759 3.14814 41.6384 3.37382 41.577C4.52237 41.2642 4.72829 39.8423 3.69739 39.3427L3.48705 39.2407L3.60756 39.1735C4.49143 38.6796 4.21648 37.363 3.1861 37.1549C2.84134 37.0852 0.858579 37.099 0.717399 37.172ZM18.2558 37.1418C18.1557 37.171 18.0507 37.2764 18.0054 37.393C17.9415 37.5585 17.9618 41.3762 18.0274 41.5054C18.1068 41.6618 18.1954 41.7047 18.4389 41.7047C18.8854 41.7047 18.9092 41.6463 18.9092 40.547V39.7072L19.0267 39.7077C19.7632 39.7104 19.8569 39.7838 20.5414 40.8936C21.0096 41.6531 21.0745 41.7168 21.3792 41.7168C21.666 41.7168 21.8459 41.5513 21.8213 41.3102C21.7821 40.9256 21.0961 39.9053 20.7263 39.6819C20.6142 39.614 20.6187 39.601 20.7689 39.5634C22.0943 39.2311 22.0825 37.4274 20.753 37.1532C20.5566 37.1126 18.3891 37.1027 18.2558 37.1418ZM31.1209 37.1627C30.8572 37.2799 30.8608 37.2476 30.8689 39.4894L30.8758 41.3899L30.931 41.4908C31.0816 41.7664 31.526 41.8087 31.7137 41.5656C31.819 41.4289 31.8285 41.3398 31.8286 40.4768L31.8287 39.6605L32.7216 39.6537L33.6145 39.6467L33.6993 39.5562C33.8241 39.423 33.8241 39.2168 33.6993 39.0834L33.6145 38.993L32.7216 38.986L31.8287 38.9791V38.399V37.8187H32.8319C33.649 37.8187 33.8509 37.8122 33.9203 37.7838C34.1694 37.6821 34.1694 37.2532 33.9203 37.1514C33.7737 37.0915 31.2584 37.1016 31.1209 37.1627ZM35.0586 37.1621C34.7897 37.2829 34.8009 37.1872 34.8009 39.3804C34.8009 41.3766 34.8011 41.3798 34.9139 41.5039C35.0417 41.6445 35.0241 41.643 36.6451 41.6436L38.1327 41.6442L38.2168 41.5892C38.4403 41.4432 38.4403 41.1188 38.2168 40.9728L38.1327 40.9179H36.9483H35.764V40.2762V39.6346H36.8171C37.9604 39.6346 37.9537 39.6353 38.0635 39.4986C38.1821 39.3512 38.1168 39.0814 37.9411 38.9925C37.8818 38.9625 37.6985 38.9566 36.8171 38.9566H35.764V38.3877V37.8187H36.9112H38.0585L38.1426 37.7638C38.2394 37.7004 38.3131 37.5725 38.3131 37.4677C38.3131 37.3628 38.2394 37.2348 38.1426 37.1715L38.0585 37.1166L36.6081 37.1171C35.2537 37.1176 35.151 37.1206 35.0586 37.1621ZM39.3651 37.1621C39.0963 37.2829 39.1074 37.1872 39.1074 39.3804C39.1074 41.3766 39.1076 41.3798 39.2204 41.5039C39.3482 41.6445 39.3306 41.643 40.9516 41.6436L42.4392 41.6442L42.5233 41.5892C42.7468 41.4432 42.7468 41.1188 42.5233 40.9728L42.4392 40.9179H41.2549H40.0705V40.2762V39.6346H41.1236C42.267 39.6346 42.2602 39.6353 42.37 39.4986C42.4886 39.3512 42.4233 39.0814 42.2476 38.9925C42.1883 38.9625 42.005 38.9566 41.1236 38.9566H40.0705V38.3877V37.8187H41.2177H42.365L42.4491 37.7638C42.5461 37.7004 42.6196 37.5725 42.6196 37.4677C42.6196 37.3628 42.5461 37.2348 42.4491 37.1715L42.365 37.1166L40.9146 37.1171C39.5602 37.1176 39.4575 37.1206 39.3651 37.1621ZM43.6593 37.17C43.5814 37.2088 43.5293 37.2582 43.486 37.3344L43.4241 37.4434L43.4172 39.2922C43.4089 41.5076 43.4039 41.461 43.6607 41.5907L43.7707 41.6463L44.8101 41.6377C45.9749 41.628 46.0214 41.6219 46.387 41.4339C47.7409 40.7381 47.7422 38.0228 46.3891 37.3278C46.0269 37.1418 45.9553 37.1325 44.7978 37.1229L43.7707 37.1144L43.6593 37.17ZM2.67455 37.843C3.03491 37.9091 3.18103 38.0597 3.17973 38.3635C3.17752 38.8577 2.90725 38.9786 1.80069 38.9803L1.43552 38.9809V38.3838V37.7868L1.98776 37.8025C2.29144 37.8112 2.60045 37.8294 2.67455 37.843ZM19.9734 37.8169C20.5454 37.8512 20.7643 38.0194 20.7643 38.424C20.7643 38.9156 20.4428 39.0512 19.2742 39.053L18.9092 39.0535V38.424V37.7945L19.2742 37.7957C19.475 37.7963 19.7897 37.8058 19.9734 37.8169ZM45.4612 37.8925C46.1343 37.9985 46.3942 38.4061 46.3942 39.3562C46.3942 39.8976 46.373 40.0169 46.2212 40.3314C45.9903 40.8095 45.7166 40.9125 44.6678 40.9167L44.377 40.9179V39.3765V37.8353L44.8415 37.8518C45.0969 37.8607 45.3758 37.879 45.4612 37.8925ZM7.02591 38.9332C7.20245 39.4055 7.35455 39.8111 7.36391 39.8344C7.37977 39.874 7.33882 39.8767 6.70728 39.8767C6.17922 39.8767 6.03609 39.8702 6.04467 39.8465C6.22368 39.3477 6.69636 38.0663 6.7 38.0697C6.70273 38.0724 6.84937 38.461 7.02591 38.9332ZM15.4658 38.9332C15.6423 39.4055 15.7944 39.8111 15.8038 39.8344C15.8196 39.874 15.7785 39.8767 15.1471 39.8767C14.6189 39.8767 14.4759 39.8702 14.4844 39.8465C14.6635 39.3477 15.1361 38.0663 15.1397 38.0697C15.1425 38.0724 15.2891 38.461 15.4658 38.9332ZM26.7517 38.9332C26.9284 39.4055 27.0804 39.8111 27.0897 39.8344C27.1057 39.874 27.0646 39.8767 26.4332 39.8767C25.905 39.8767 25.762 39.8702 25.7705 39.8465C25.9496 39.3477 26.4222 38.0663 26.4258 38.0697C26.4285 38.0724 26.5752 38.461 26.7517 38.9332ZM2.85876 39.695C3.20846 39.7867 3.34834 39.9397 3.36264 40.2459C3.38903 40.8158 3.08717 40.963 1.88727 40.9654L1.43552 40.9662V40.2968V39.6272L2.07291 39.6417C2.54143 39.6523 2.74956 39.6664 2.85876 39.695Z" fill="#049244"/>
<path fill-rule="evenodd" clip-rule="evenodd" d="M35.306 2.84838C33.6733 3.8168 29.7152 4.13282 24.4407 3.71582C24.182 3.69535 23.9243 3.66826 23.8678 3.65542C23.7849 3.63672 23.6942 3.64626 23.3975 3.70476C22.8222 3.81833 22.4507 3.9048 22.4559 3.92401C22.4585 3.93367 22.3827 3.99929 22.2874 4.06974C21.9285 4.33528 21.1642 4.98398 20.9534 5.20208L20.8813 5.27648L21.12 5.52548C21.2512 5.66245 22.1022 6.50852 23.011 7.40572L24.6634 9.03696L24.9481 8.96167C25.1047 8.92034 25.2883 8.87011 25.3565 8.85014C25.5197 8.80232 25.474 8.8345 25.0998 9.03085L24.8001 9.18816L25.1772 9.55938L25.5545 9.93047L25.6863 9.9161C26.0245 9.87922 27.5723 9.55378 28.2939 9.36798C28.6659 9.2721 28.6462 9.26472 28.8279 9.56968C28.9619 9.7949 28.9098 9.79299 29.2796 9.5857C30.0683 9.14378 30.8469 8.62263 31.4407 8.13925C31.561 8.04145 31.6635 7.96553 31.6687 7.97062C31.6828 7.98435 31.2257 8.64272 30.9998 8.93407C30.6742 9.35425 30.3355 9.73742 29.9018 10.1765C29.6758 10.4053 29.5198 10.5675 29.5552 10.5368L29.6194 10.4811L29.7155 10.5892C29.7683 10.6486 29.8417 10.7509 29.8786 10.8163L29.9457 10.9355L29.7444 11.1635C29.4754 11.468 29.0754 11.8501 28.6235 12.2341C28.4193 12.4076 28.2488 12.5577 28.2448 12.5676C28.2406 12.5774 28.9907 13.3324 29.9117 14.2452L31.5861 15.9048L31.7259 15.8286C32.8738 15.2028 33.1977 14.9113 34.0633 13.7246C34.3427 13.3417 34.8686 12.5426 34.7435 12.691C34.7124 12.7279 34.6988 12.723 34.5835 12.6353L34.4575 12.5391L34.5436 12.3044C35.3163 10.198 35.6868 7.53976 35.5955 4.75762C35.5687 3.9427 35.5088 3.01854 35.471 2.83885L35.4545 2.76025L35.306 2.84838ZM34.811 12.5659C34.7899 12.6058 34.7782 12.6385 34.785 12.6385C34.7917 12.6385 34.8146 12.6058 34.8358 12.5659C34.8569 12.5259 34.8686 12.4932 34.8618 12.4932C34.8549 12.4932 34.8322 12.5259 34.811 12.5659Z" fill="#4CAE4E"/>
<path fill-rule="evenodd" clip-rule="evenodd" d="M22.337 3.93469C22.3234 3.9394 22.1451 3.98861 21.941 4.04431C20.253 4.5043 18.4933 5.3959 17.783 6.15092C17.7422 6.19441 17.8086 6.1466 17.9307 6.0446C18.1994 5.8204 18.1526 5.81417 18.3147 6.09573C18.4183 6.27567 18.5127 6.39458 18.7134 6.5978C19.0515 6.9404 19.1999 7.17262 19.1379 7.26291C18.7146 7.88008 18.0265 9.36214 18.1206 9.45408C18.183 9.51525 19.1983 9.59397 20.1217 9.60923L21.0249 9.62424L21.2891 10.07C21.5504 10.5105 21.5577 10.5198 21.9237 10.8811C22.3004 11.2527 22.6723 11.7667 22.5887 11.8C22.4636 11.85 23.3051 11.7097 23.8962 11.5821C25.5263 11.2299 26.8804 10.7687 28.3426 10.0676L28.9527 9.77494L28.8422 9.59067C28.7814 9.48931 28.7044 9.37931 28.6713 9.34637L28.6111 9.28635L28.2956 9.36761C27.5724 9.55392 26.025 9.87935 25.6863 9.91623L25.5545 9.9306L25.1773 9.55951L24.8001 9.1883L25.0999 9.03098C25.4741 8.83463 25.5198 8.80246 25.3565 8.85027C25.2884 8.87024 25.1047 8.92047 24.9482 8.9618L24.6635 9.03709L23.0111 7.40585C22.1022 6.50865 21.2513 5.66258 21.1201 5.52561L20.8814 5.27661L20.9534 5.20222C21.1647 4.98373 21.9353 4.32982 22.2751 4.08081C22.4921 3.92185 22.4918 3.9221 22.4224 3.92426C22.389 3.92541 22.3507 3.92999 22.337 3.93469ZM29.5668 10.5292C29.5412 10.5568 29.5115 10.5741 29.5005 10.5676C29.4897 10.561 29.4657 10.5766 29.4472 10.6024C29.3977 10.6718 28.7701 11.1811 28.4007 11.4516C27.1271 12.3849 25.67 13.1287 23.9829 13.7067C23.7583 13.7837 23.5863 13.8472 23.6008 13.8479C23.6153 13.8486 23.7232 13.8175 23.8407 13.7786C24.0806 13.6992 24.0561 13.6898 24.1817 13.9097C24.2273 13.9897 24.3274 14.1204 24.4041 14.2003C24.622 14.4271 24.6917 14.558 24.6079 14.5827C24.5841 14.5897 24.4532 14.6409 24.317 14.6966C23.3816 15.0795 21.4261 15.6666 20.7212 15.7761C20.4944 15.8114 20.6547 15.8063 21.1995 15.7612C22.0964 15.6869 23.0416 15.5708 23.6736 15.4575C24.0727 15.386 22.5195 15.8781 21.8049 16.0495C20.3309 16.4033 19.1744 16.5449 17.7418 16.5475C17.3107 16.5482 16.9598 16.5503 16.9622 16.5522C16.9836 16.5697 17.5221 16.782 17.8347 16.8962C20.5825 17.8993 23.9494 18.193 26.74 17.6728L26.9895 17.6263L27.3433 17.9713C27.5379 18.161 27.7376 18.3734 27.787 18.4434C27.8364 18.5133 27.8805 18.5705 27.8849 18.5705C27.8892 18.5705 27.9872 18.5323 28.1026 18.4855C29.6066 17.8766 31 16.9727 32.2443 15.7991C32.5246 15.5348 33.1084 14.9287 32.9537 15.0626C32.821 15.1776 32.1336 15.6065 31.726 15.8287L31.5861 15.9049L29.9117 14.2453C28.9908 13.3326 28.2407 12.5776 28.2449 12.5678C28.2489 12.5578 28.4193 12.4078 28.6236 12.2342C29.0754 11.8503 29.4754 11.4681 29.7444 11.1637L29.9458 10.9356L29.8787 10.8158C29.8418 10.75 29.7669 10.6472 29.7124 10.5874L29.6134 10.4788L29.5668 10.5292ZM22.0833 11.8805C22.1072 11.8866 22.1462 11.8866 22.17 11.8805C22.1938 11.8744 22.1743 11.8695 22.1267 11.8695C22.079 11.8695 22.0595 11.8744 22.0833 11.8805ZM19.0514 12.0514C19.259 12.0555 19.5987 12.0555 19.8063 12.0514C20.0139 12.0474 19.844 12.0441 19.4289 12.0441C19.0137 12.0441 18.8438 12.0474 19.0514 12.0514Z" fill="#2C955A"/>
<path fill-rule="evenodd" clip-rule="evenodd" d="M17.9189 6.05558C16.5123 7.23115 15.5564 8.91351 15.0343 11.1325C14.9245 11.5996 14.8986 11.5542 15.328 11.6466C17.2048 12.05 19.7472 12.1614 21.6812 11.9249C22.1201 11.8713 22.5306 11.8144 22.5765 11.8011C22.677 11.7718 22.3281 11.2798 21.9238 10.881C21.5577 10.5197 21.5504 10.5104 21.2891 10.0699L21.025 9.62415L20.1217 9.60914C19.1983 9.59388 18.183 9.51516 18.1206 9.45399C18.0265 9.36205 18.7146 7.87999 19.1379 7.26282C19.1999 7.17253 19.0516 6.94031 18.7134 6.59771C18.5127 6.39449 18.4183 6.27558 18.3147 6.09564C18.1524 5.8137 18.2023 5.81878 17.9189 6.05558ZM23.6364 13.8391C20.8372 14.7086 17.0949 15.1226 13.8725 14.919C13.2459 14.8794 12.3775 14.8058 11.8739 14.7496C11.6595 14.7257 11.4841 14.7136 11.4841 14.7229C11.4841 14.7541 12.1523 15.3712 12.455 15.6192C16.5132 18.9457 22.833 20.2631 27.3985 18.7342C27.6366 18.6545 27.8403 18.5814 27.8511 18.5716C27.8852 18.5408 27.6619 18.2778 27.3205 17.9471L26.9895 17.6262L26.74 17.6727C23.9494 18.1929 20.5826 17.8992 17.8348 16.8961C17.5221 16.7819 16.9837 16.5697 16.9622 16.5521C16.9599 16.5502 17.3107 16.5482 17.7418 16.5474C19.1744 16.5449 20.3309 16.4032 21.805 16.0494C22.5196 15.878 24.0727 15.3859 23.6736 15.4574C23.0417 15.5707 22.0964 15.6868 21.1996 15.7611C20.6547 15.8062 20.4944 15.8113 20.7213 15.776C21.4261 15.6665 23.3816 15.0794 24.3171 14.6965C24.4532 14.6408 24.5841 14.5896 24.6079 14.5826C24.6919 14.5579 24.6218 14.4265 24.4038 14.2002C24.3268 14.1203 24.2221 13.9814 24.171 13.8917C24.0538 13.6862 24.1106 13.6917 23.6364 13.8391Z" fill="#066756"/>
</svg>
