<svg width="22" height="16" viewBox="0 0 22 16" fill="none" xmlns="http://www.w3.org/2000/svg">
<path d="M21.54 0.926758L11.8333 10.5934C11.5835 10.8418 11.2455 10.9811 10.8933 10.9811C10.541 10.9811 10.2031 10.8418 9.95329 10.5934L0.333288 1.00009C0.303714 1.10878 0.288034 1.22079 0.286621 1.33342V14.6668C0.286621 15.0204 0.427097 15.3595 0.677145 15.6096C0.927194 15.8596 1.26633 16.0001 1.61995 16.0001H20.2866C20.6402 16.0001 20.9794 15.8596 21.2294 15.6096C21.4795 15.3595 21.62 15.0204 21.62 14.6668V1.33342C21.6146 1.19453 21.5877 1.05731 21.54 0.926758ZM2.53329 14.6668H1.60662V13.7134L6.45329 8.90676L7.39329 9.84676L2.53329 14.6668ZM20.2733 14.6668H19.34L14.48 9.84676L15.42 8.90676L20.2666 13.7134L20.2733 14.6668Z" fill="white"/>
</svg>
