<svg width="46" height="47" viewBox="0 0 46 47" fill="none" xmlns="http://www.w3.org/2000/svg">
<g clip-path="url(#clip0_78_889)">
<path d="M43.125 29.5086C43.1279 28.0692 42.7705 26.6519 42.0854 25.386C41.4002 24.1201 40.4092 23.0457 39.2025 22.2609C37.9958 21.4761 36.6119 21.0058 35.1769 20.8928C33.7419 20.7798 32.3014 21.0278 30.9868 21.6141C29.6722 22.2005 28.5252 23.1065 27.6505 24.2496C26.7757 25.3927 26.2009 26.7366 25.9785 28.1588C25.7562 29.581 25.8933 31.0362 26.3774 32.3918C26.8614 33.7474 27.6771 34.9603 28.75 35.9199V46.7586L34.5 44.036L40.25 46.7586V35.9199C41.1537 35.114 41.877 34.1263 42.3724 33.0214C42.8679 31.9166 43.1243 30.7195 43.125 29.5086ZM37.375 42.2161L34.5 40.8548L31.625 42.2161V37.6305C33.4829 38.3015 35.517 38.3015 37.375 37.6305V42.2161ZM34.5 35.2586C33.3627 35.2586 32.251 34.9214 31.3055 34.2896C30.3599 33.6578 29.6229 32.7597 29.1877 31.7091C28.7525 30.6584 28.6386 29.5023 28.8605 28.3869C29.0823 27.2715 29.63 26.2469 30.4341 25.4428C31.2383 24.6386 32.2628 24.091 33.3782 23.8691C34.4936 23.6473 35.6497 23.7611 36.7004 24.1963C37.7511 24.6315 38.6491 25.3685 39.2809 26.3141C39.9128 27.2597 40.25 28.3714 40.25 29.5086C40.2481 31.0331 39.6417 32.4945 38.5637 33.5724C37.4858 34.6503 36.0244 35.2567 34.5 35.2586Z" fill="#049244"/>
<path d="M35.9375 7.94617H31.625V6.50867C31.6227 5.74687 31.3191 5.01692 30.7804 4.47825C30.2417 3.93957 29.5118 3.63594 28.75 3.63367H17.25C16.4882 3.63594 15.7583 3.93957 15.2196 4.47825C14.6809 5.01692 14.3773 5.74687 14.375 6.50867V7.94617H10.0625C9.3007 7.94844 8.57076 8.25207 8.03208 8.79075C7.49341 9.32942 7.18978 10.0594 7.1875 10.8212V41.0087C7.18978 41.7705 7.49341 42.5004 8.03208 43.0391C8.57076 43.5778 9.3007 43.8814 10.0625 43.8837H23V41.0087H10.0625V10.8212H14.375V15.1337H31.625V10.8212H35.9375V18.0087H38.8125V10.8212C38.8102 10.0594 38.5066 9.32942 37.9679 8.79075C37.4292 8.25207 36.6993 7.94844 35.9375 7.94617ZM28.75 12.2587H17.25V6.50867H28.75V12.2587Z" fill="#111111"/>
</g>
<defs>
<clipPath id="clip0_78_889">
<rect width="46" height="46" fill="white" transform="translate(0 0.758667)"/>
</clipPath>
</defs>
</svg>
