<svg width="19" height="17" viewBox="0 0 19 17" fill="none" xmlns="http://www.w3.org/2000/svg">
<path fill-rule="evenodd" clip-rule="evenodd" d="M9.10714 0C6.63375 0 6.32368 0.00977996 5.35232 0.05115C4.38289 0.09242 3.72086 0.23612 3.14164 0.44626C2.54271 0.66345 2.03486 0.95409 1.5285 1.42663C1.02225 1.8992 0.710782 2.37323 0.478175 2.93218C0.252961 3.47284 0.099001 4.09073 0.0548581 4.99546C0.0105009 5.90208 0 6.19154 0 8.50002C0 10.8085 0.0105009 11.0979 0.0548581 12.0045C0.099001 12.9093 0.252961 13.5272 0.478175 14.0678C0.710782 14.6268 1.02225 15.1008 1.5285 15.5734C2.03486 16.0459 2.54271 16.3366 3.14164 16.5538C3.72086 16.7639 4.38289 16.9076 5.35232 16.9488C6.32368 16.9902 6.63375 17 9.10714 17C11.5805 17 11.8906 16.9902 12.862 16.9488C13.8314 16.9076 14.4934 16.7639 15.0726 16.5538C15.6716 16.3366 16.1794 16.0459 16.6858 15.5734C17.192 15.1008 17.5035 14.6268 17.7362 14.0678C17.9613 13.5272 18.1153 12.9093 18.1594 12.0045C18.2038 11.0979 18.2143 10.8085 18.2143 8.50002C18.2143 6.19154 18.2038 5.90208 18.1594 4.99546C18.1153 4.09073 17.9613 3.47284 17.7362 2.93218C17.5035 2.37323 17.192 1.8992 16.6858 1.42663C16.1794 0.95409 15.6716 0.66345 15.0726 0.44626C14.4934 0.23612 13.8314 0.09242 12.862 0.05115C11.8906 0.00977996 11.5805 0 9.10714 0ZM9.10714 1.53153C11.5389 1.53153 11.8269 1.5402 12.7872 1.58109C13.6752 1.61888 14.1573 1.75736 14.4783 1.87376C14.9034 2.02796 15.2068 2.21215 15.5254 2.50961C15.8442 2.80703 16.0414 3.09019 16.2066 3.48694C16.3314 3.78646 16.4797 4.23653 16.5202 5.06527C16.5641 5.96156 16.5734 6.23041 16.5734 8.50002C16.5734 10.7696 16.5641 11.0384 16.5202 11.9347C16.4797 12.7635 16.3314 13.2135 16.2066 13.5131C16.0414 13.9098 15.8442 14.193 15.5254 14.4904C15.2068 14.7879 14.9034 14.972 14.4783 15.1262C14.1573 15.2426 13.6752 15.3811 12.7872 15.4189C11.8271 15.4598 11.5391 15.4685 9.10714 15.4685C6.67521 15.4685 6.38732 15.4598 5.42711 15.4189C4.53911 15.3811 4.05696 15.2426 3.73596 15.1262C3.31093 14.972 3.0075 14.7879 2.68886 14.4904C2.37021 14.193 2.17286 13.9098 2.00764 13.5131C1.88293 13.2135 1.73454 12.7635 1.69404 11.9347C1.65021 11.0384 1.64089 10.7696 1.64089 8.50002C1.64089 6.23041 1.65021 5.96156 1.69404 5.06527C1.73454 4.23653 1.88293 3.78646 2.00764 3.48694C2.17286 3.09019 2.37011 2.80703 2.68886 2.50961C3.0075 2.21215 3.31093 2.02796 3.73596 1.87376C4.05696 1.75736 4.53911 1.61888 5.42711 1.58109C6.38743 1.5402 6.67543 1.53153 9.10714 1.53153ZM4.43046 8.50002C4.43046 6.08934 6.52425 4.13514 9.10714 4.13514C11.69 4.13514 13.7838 6.08934 13.7838 8.50002C13.7838 10.9107 11.69 12.8649 9.10714 12.8649C6.52425 12.8649 4.43046 10.9107 4.43046 8.50002ZM9.10714 11.3333C7.43057 11.3333 6.07146 10.0648 6.07146 8.50002C6.07146 6.93519 7.43057 5.66667 9.10714 5.66667C10.7837 5.66667 12.1428 6.93519 12.1428 8.50002C12.1428 10.0648 10.7837 11.3333 9.10714 11.3333ZM13.9685 4.98267C14.5721 4.98267 15.0614 4.52603 15.0614 3.96269C15.0614 3.39935 14.5721 2.94267 13.9685 2.94267C13.365 2.94267 12.8757 3.39935 12.8757 3.96269C12.8757 4.52603 13.365 4.98267 13.9685 4.98267Z" fill="#049244"/>
</svg>
