<svg width="20" height="15" viewBox="0 0 20 15" fill="none" xmlns="http://www.w3.org/2000/svg">
<path d="M19.2857 1.77573C18.5771 2.07692 17.8141 2.28061 17.0139 2.37161C17.8311 1.90358 18.4583 1.16143 18.7536 0.27736C17.9884 0.71073 17.1429 1.026 16.2395 1.19502C15.5195 0.45937 14.4906 0 13.3518 0C11.1683 0 9.39665 1.69556 9.39665 3.78657C9.39665 4.08342 9.43061 4.37161 9.49853 4.64897C6.2101 4.49079 3.29522 2.98483 1.34254 0.69122C1.00181 1.25244 0.807109 1.90358 0.807109 2.59697C0.807109 3.91008 1.50555 5.06934 2.56736 5.74865C1.91985 5.73023 1.30858 5.55796 0.774282 5.27627V5.32286C0.774282 7.1582 2.13832 8.6891 3.94951 9.0358C3.61784 9.1246 3.26805 9.169 2.90695 9.169C2.65226 9.169 2.40321 9.1463 2.1621 9.1018C2.66583 10.6056 4.1261 11.701 5.85805 11.7302C4.50419 12.7465 2.79715 13.3521 0.94408 13.3521C0.624858 13.3521 0.309033 13.3348 0 13.3001C1.75119 14.3727 3.83178 15 6.06521 15C13.3439 15 17.3229 9.2308 17.3229 4.22644C17.3229 4.06176 17.3194 3.89707 17.3127 3.73564C18.0858 3.20152 18.7571 2.53521 19.2857 1.77573Z" fill="#049244"/>
</svg>
